<svg width="16" height="12" viewBox="0 0 16 12" fill="none" xmlns="http://www.w3.org/2000/svg">
<path d="M1.31193 3.31901L1.62378 3.47791H1.62378L1.31193 3.31901ZM1.53254 10.9675L1.78002 11.215L1.78002 11.215L1.53254 10.9675ZM9.18099 8.97519L9.33989 9.28704L9.33989 9.28704L9.18099 8.97519ZM9.83652 8.31966L10.1484 8.47856V8.47856L9.83652 8.31966ZM9.83652 3.31901L10.1484 3.16012V3.16012L9.83652 3.31901ZM9.18099 2.66349L9.33989 2.35164V2.35164L9.18099 2.66349ZM1.96745 2.66349L2.12635 2.97534V2.97534L1.96745 2.66349ZM3.21488 9.28512L3.46237 9.53261L3.21488 9.28512ZM1.49844 4.9C1.49844 4.47419 1.49871 4.17587 1.51771 3.9433C1.53638 3.71482 1.57137 3.58078 1.62378 3.47791L1.00008 3.16012C0.889 3.37812 0.842241 3.61453 0.820036 3.8863C0.798165 4.15399 0.798438 4.48574 0.798438 4.9H1.49844ZM1.49844 6.37256V4.9H0.798438V6.37256H1.49844ZM0.798438 6.37256V9.13868H1.49844V6.37256H0.798438ZM0.798438 9.13868V10.8084H1.49844V9.13868H0.798438ZM0.798438 10.8084C0.798438 11.3206 1.41779 11.5772 1.78002 11.215L1.28505 10.72C1.36379 10.6412 1.49844 10.697 1.49844 10.8084H0.798438ZM1.78002 11.215L3.46237 9.53261L2.9674 9.03764L1.28505 10.72L1.78002 11.215ZM7.60001 8.78868H3.56844V9.48868H7.60001V8.78868ZM9.0221 8.66333C8.91923 8.71575 8.78519 8.75073 8.5567 8.7694C8.32413 8.7884 8.02582 8.78868 7.60001 8.78868V9.48868C8.01427 9.48868 8.34602 9.48895 8.61371 9.46708C8.88548 9.44487 9.12189 9.39811 9.33989 9.28704L9.0221 8.66333ZM9.52466 8.16077C9.41441 8.37715 9.23848 8.55308 9.0221 8.66333L9.33989 9.28704C9.68799 9.10967 9.971 8.82666 10.1484 8.47856L9.52466 8.16077ZM9.65001 6.73867C9.65001 7.16449 9.64973 7.4628 9.63073 7.69537C9.61207 7.92386 9.57708 8.0579 9.52466 8.16077L10.1484 8.47856C10.2594 8.26056 10.3062 8.02415 10.3284 7.75237C10.3503 7.48469 10.35 7.15294 10.35 6.73867H9.65001ZM9.65001 4.9V6.73867H10.35V4.9H9.65001ZM9.52466 3.47791C9.57708 3.58078 9.61207 3.71482 9.63073 3.9433C9.64973 4.17587 9.65001 4.47419 9.65001 4.9H10.35C10.35 4.48574 10.3503 4.15399 10.3284 3.8863C10.3062 3.61453 10.2594 3.37812 10.1484 3.16012L9.52466 3.47791ZM9.0221 2.97534C9.23848 3.0856 9.41441 3.26152 9.52466 3.47791L10.1484 3.16012C9.971 2.81202 9.68799 2.529 9.33989 2.35164L9.0221 2.97534ZM7.60001 2.85C8.02582 2.85 8.32413 2.85027 8.5567 2.86927C8.78519 2.88794 8.91923 2.92293 9.0221 2.97534L9.33989 2.35164C9.12189 2.24056 8.88548 2.1938 8.6137 2.1716C8.34602 2.14973 8.01427 2.15 7.60001 2.15V2.85ZM3.54844 2.85H7.60001V2.15H3.54844V2.85ZM2.12635 2.97534C2.22922 2.92293 2.36326 2.88794 2.59174 2.86927C2.82431 2.85027 3.12262 2.85 3.54844 2.85V2.15C3.13417 2.15 2.80243 2.14973 2.53474 2.1716C2.26297 2.1938 2.02655 2.24056 1.80856 2.35164L2.12635 2.97534ZM1.62378 3.47791C1.73403 3.26152 1.90996 3.0856 2.12635 2.97534L1.80856 2.35164C1.46046 2.529 1.17744 2.81202 1.00008 3.16012L1.62378 3.47791ZM3.46237 9.53261C3.4905 9.50448 3.52865 9.48868 3.56844 9.48868V8.78868C3.343 8.78868 3.1268 8.87823 2.9674 9.03764L3.46237 9.53261Z" fill="#002D9F"/>
<path d="M3 5L8 5" stroke="#535353" stroke-linecap="round" stroke-linejoin="round"/>
<path d="M3 7L6 7" stroke="#535353" stroke-linecap="round" stroke-linejoin="round"/>
<path d="M14.373 7.313V4.884H14.359L12.707 7.313H14.373ZM14.933 7.313H15.605V7.838H14.933V9H14.373V7.838H12.196V7.264L14.457 4.037H14.933V7.313Z" fill="#535353"/>
</svg>
